<?xml version="1.0" encoding="utf-8"?>
<!-- Generator: Adobe Illustrator 24.2.3, SVG Export Plug-In . SVG Version: 6.00 Build 0)  -->
<svg version="1.1" id="Layer_1" xmlns="http://www.w3.org/2000/svg" xmlns:xlink="http://www.w3.org/1999/xlink" x="0px" y="0px"
	 viewBox="0 0 156.6 180" style="enable-background:new 0 0 156.6 180;" xml:space="preserve">
<style type="text/css">
	.st0{fill:#FFFFFF;}
</style>
<path class="st0" d="M156.5,154.4c0,0,3.1-31.8-35.1-48.2h12.4c-1,0-2.9-2.8-3.4-3.4c-2.5-3.1-4.3-6.7-5.8-10.4
	c-3.2-8.2-4.3-17-4.8-25.6c-0.7-10.8-0.6-21.8-2.9-32.4S109.6,13.3,100.8,7C94.7,2.7,87,0.2,79.2,0c-6.5-0.2-13,1.1-18.5,4.2
	C49.3,10.5,41.8,22.7,38.8,35c-0.2,1-0.5,2-0.7,3c-0.7,3.6-1,7.3-1.1,11c-0.4,9.3,0,18.7-1.1,27.9c-1.4,11.1-5.8,25.6-16.3,31.5h10
	c0,0-29.6,15-29.6,46c0,0-1,25.6,35,25.6s91.6,0,91.6,0S151.8,179,156.5,154.4z M99.1,34.8c0,0,8.3,9.8,0,16.3l13.3,1.3
	c0,0-2,49.7-34.3,49.7c0,0-26.5,3.9-34.3-43.8C43.8,58.3,75.4,55.7,99.1,34.8z M56.2,98.9c26.6,21.6,43.4,0,43.4,0l-4.4,9.6l15.3-2
	l-32.2,32.7L48,108.9l13.7,2.8L56.2,98.9z M78.1,171.4L78.1,171.4c-2.4,0-4.4-2-4.4-4.4s2-4.4,4.4-4.4l0,0c2.4,0,4.4,2,4.4,4.4
	C82.5,169.5,80.5,171.4,78.1,171.4z M78.1,157L78.1,157c-2.4,0-4.4-2-4.4-4.4s2-4.4,4.4-4.4l0,0c2.4,0,4.4,2,4.4,4.4
	C82.5,155.1,80.5,157,78.1,157z M117.9,171.4h-16.3c-2.4,0-4.4-2-4.4-4.4s2-4.4,4.4-4.4h16.3c2.4,0,4.4,2,4.4,4.4
	C122.2,169.5,120.3,171.4,117.9,171.4z"/>
</svg>
