<?xml version="1.0" encoding="utf-8"?>
<!-- Generator: Adobe Illustrator 24.2.3, SVG Export Plug-In . SVG Version: 6.00 Build 0)  -->
<svg version="1.1" id="Layer_1" xmlns="http://www.w3.org/2000/svg" xmlns:xlink="http://www.w3.org/1999/xlink" x="0px" y="0px"
	 viewBox="0 0 161.7 180" style="enable-background:new 0 0 161.7 180;" xml:space="preserve">
<style type="text/css">
	.st0{fill:#FFFFFF;}
</style>
<path class="st0" d="M81.4,0c0,0-35.9-2.8-41.3,42.2c0,0-0.4,56.4,41.3,60.1c0,0,38.9-0.2,40-62.8C121.5,39.6,120.1,2.7,81.4,0z
	 M82.3,95.6c0,0-28,4-36.3-42.1c-0.2-1,0.8-1.8,1.8-1.5l3.3,1.2c0,0-2.6-17.8,1.9-24.8c1.1-1.7,3.3-2.2,5.1-1.4
	c6,2.8,24.1,9.5,46-0.1c1.9-0.8,4.1-0.1,5.1,1.8c1.8,3.2,3.4,10.1,1.6,24.5l3.4-1.2c0.9-0.3,1.9,0.4,1.8,1.4
	C114.6,62,108.1,93.5,82.3,95.6z M161.6,147.3c-0.2-4.1-0.8-8.1-1.9-12.1c-3.7-13.9-13.1-24.7-25.8-31.3c-4.5-2.4-9.4-4.2-14.3-5.5
	c-0.3-0.1-6.1-1.3-6.1-1.3c0,5.2-10.7,15.3-10.7,15.3l-22.1,18.8c0,0-12-10.3-21.9-19.2c-9.8-9-10.5-14.9-10.5-14.9
	c-0.3,0.1-0.6,0.1-1,0.2c-9.5,1.9-19,5.9-26.8,11.6c-12,8.7-18.8,21.5-20.3,36.2c-0.5,4.9-0.5,10,0.8,14.8
	C5.4,176,22.9,180,37.5,180c0,0,45.9,0,87.5,0c14,0,31-4,35.5-19.3C161.7,156.4,161.9,151.8,161.6,147.3z M80.8,141.5
	c2.3,0,4.2,1.9,4.2,4.2s-1.9,4.2-4.2,4.2s-4.2-1.9-4.2-4.2S78.5,141.5,80.8,141.5z M80.9,164.2c-2.3,0-4.2-1.9-4.2-4.2
	c0-2.3,1.9-4.2,4.2-4.2c2.3,0,4.2,1.9,4.2,4.2C85.2,162.3,83.3,164.2,80.9,164.2z M120.7,164.2h-15.9c-2.3,0-4.2-1.9-4.2-4.2
	c0-2.3,1.9-4.2,4.2-4.2h15.9c2.3,0,4.2,1.9,4.2,4.2C125,162.3,123.1,164.2,120.7,164.2z"/>
</svg>
